<svg xmlns="http://www.w3.org/2000/svg" width="22" height="22" fill="none" viewBox="0 0 22 22">
    <circle cx="10.999" cy="11" r="9.167" fill="#fff" opacity=".1"/>
    <path fill="#fff" fill-rule="evenodd" d="M16.179 7.507c.183.183.315.41.382.66.39 1.566.3 4.04.008 5.666-.068.25-.2.477-.382.66-.183.183-.411.315-.66.383-.915.249-4.594.249-4.594.249s-3.68 0-4.593-.25c-.25-.067-.478-.199-.66-.382-.184-.183-.316-.41-.383-.66-.391-1.56-.284-4.034-.008-5.659.068-.25.2-.477.383-.66.183-.183.41-.315.66-.382.914-.25 4.593-.257 4.593-.257s3.68 0 4.594.25c.25.067.477.199.66.382zM12.807 11l-3.053 1.768V9.232L12.807 11z" clip-rule="evenodd" opacity=".8"/>
</svg>
