<svg xmlns="http://www.w3.org/2000/svg" width="18" height="18" fill="none" viewBox="0 0 18 18">
    <path fill="#F55240" d="M13.943.218c-.152 0-.305.007-.456.02-1.559.142-2.98 1.088-4.016 2.671C8.271 1.138 6.285 0 4.375 0c-.42 0-.836.054-1.236.161C1.902.492.894 1.413.373 2.688-.205 4.1-.106 5.755.633 7.005c1.012 1.718 2.75 2.767 4.43 3.78.862.522 1.754 1.06 2.52 1.677.227.183.514.423.76.683-.31.306-.924 1.32-.93 1.333-.192.405-.457 1.262-.227 1.903.099.273.275.471.526.588.128.06.263.09.401.09.593 0 1.143-.561 1.5-1.033.652-.863.75-1.769.29-2.694.789-.714 1.648-1.377 2.479-2.02 1.43-1.104 2.907-2.247 4.083-3.683.575-.702 2.351-3.17 1.096-5.47C16.897.945 15.544.22 13.943.22zM8.805 15.066c-.12.229-.24.393-.366.498.026-.338.155-.67.238-.851.023-.051.176-.287.285-.445.035.268-.017.531-.157.798zM7.376 2.362c.368.303.694.646.967 1.017.033.045.083.128.141.225.336.56.697 1.106 1.087 1.106.194 0 .358-.137.488-.406.829-1.715 2.15-2.738 3.723-2.88.091-.009.184-.013.275-.013 1.203 0 2.26.704 2.632 1.752.49 1.381-.285 3.018-2.37 5.003-.894.853-1.886 1.62-2.846 2.361-.753.582-1.531 1.183-2.26 1.824-.655-.727-1.515-1.335-2.197-1.788-.404-.269-.842-.532-1.305-.81C3.435 8.385.856 6.835 1.262 3.948c.233-1.651 1.461-2.718 3.13-2.718.123 0 .249.006.374.018.917.087 1.845.483 2.61 1.114z"/>
</svg>
