<svg xmlns="http://www.w3.org/2000/svg" width="22" height="22" fill="none" viewBox="0 0 22 22">
    <circle cx="10.999" cy="11" r="9.167" fill="#fff" opacity=".1"/>
    <path fill="#fff" fill-rule="evenodd" d="M17.05 7.658c-.404.18-.84.3-1.296.355.466-.279.824-.721.992-1.248-.435.259-.92.446-1.433.548-.412-.439-.998-.713-1.647-.713-1.246 0-2.257 1.01-2.257 2.257 0 .176.02.349.059.514-1.876-.094-3.539-.992-4.652-2.358-.194.333-.305.721-.305 1.135 0 .782.398 1.473 1.004 1.878-.37-.012-.718-.113-1.023-.282v.028c0 1.094.779 2.005 1.81 2.213-.189.052-.388.08-.594.08-.146 0-.287-.015-.425-.041.287.896 1.12 1.549 2.108 1.567-.772.605-1.745.966-2.802.966-.183 0-.363-.01-.539-.032.999.64 2.185 1.014 3.46 1.014 4.15 0 6.42-3.438 6.42-6.42 0-.098-.002-.196-.007-.292.442-.319.824-.716 1.127-1.169z" clip-rule="evenodd" opacity=".8"/>
</svg>
